HIERARCHY
ROOT Hips
{
	OFFSET 0.00 0.00 0.00
	CHANNELS 6 Xposition Yposition Zposition Xrotation Yrotation Zrotation
	JOINT Spine
	{
		OFFSET 0.00000 1.66264 2.49395
		CHANNELS 3 Xrotation Yrotation Zrotation
		JOINT Spine1
		{
			OFFSET 0.00000 0.57743 3.27475
			CHANNELS 3 Xrotation Yrotation Zrotation
			JOINT Spine2
			{
				OFFSET 0.00000 0.28982 3.31262
				CHANNELS 3 Xrotation Yrotation Zrotation
				JOINT Spine3
				{
					OFFSET 0.00000 0.00000 3.32527
					CHANNELS 3 Xrotation Yrotation Zrotation
					JOINT Neck
					{
						OFFSET 0.00000 -1.24697 8.72884
						CHANNELS 3 Xrotation Yrotation Zrotation
						JOINT Head
						{
							OFFSET 0.00000 -0.79396 4.50279
							CHANNELS 3 Xrotation Yrotation Zrotation
							End Site
							{
								OFFSET 0.00000 0.00001 5.38279
							}
						}
					}
					JOINT RightShoulder
					{
						OFFSET -1.14808 -1.91346 6.19963
						CHANNELS 3 Xrotation Yrotation Zrotation
						JOINT RightArm
						{
							OFFSET -5.70212 0.00000 0.00000
							CHANNELS 3 Xrotation Yrotation Zrotation
							JOINT RightForeArm
							{
								OFFSET -10.82477 0.00000 0.00000
								CHANNELS 3 Xrotation Yrotation Zrotation
								JOINT RightHand
								{
									OFFSET -10.02856 0.00000 0.00000
									CHANNELS 3 Xrotation Yrotation Zrotation
									JOINT RightHandEnd
									{
										OFFSET -2.68345 0.00000 0.00000
										CHANNELS 3 Xrotation Yrotation Zrotation
										End Site
										{
											OFFSET -2.68345 0.00000 0.00000
										}
									}
									JOINT RightHandThumb1
									{
										OFFSET -1.07338 -1.78897 -0.71559
										CHANNELS 3 Yrotation Xrotation Zrotation
										End Site
										{
											OFFSET -2.59202 -0.69453 0.00000
										}
									}
								}
							}
						}
					}
					JOINT LeftShoulder
					{
						OFFSET 1.14808 -1.91346 6.19963
						CHANNELS 3 Xrotation Yrotation Zrotation
						JOINT LeftArm
						{
							OFFSET 5.70212 0.00000 0.00000
							CHANNELS 3 Xrotation Yrotation Zrotation
							JOINT LeftForeArm
							{
								OFFSET 10.82477 0.00000 0.00000
								CHANNELS 3 Xrotation Yrotation Zrotation
								JOINT LeftHand
								{
									OFFSET 10.02856 0.00000 0.00000
									CHANNELS 3 Xrotation Yrotation Zrotation
									JOINT LeftHandEnd
									{
										OFFSET 2.68345 0.00000 0.00000
										CHANNELS 3 Xrotation Yrotation Zrotation
										End Site
										{
											OFFSET 2.68345 0.00000 0.00000
										}
									}
									JOINT LeftHandThumb1
									{
										OFFSET 1.07338 -1.78897 -0.71559
										CHANNELS 3 Yrotation Xrotation Zrotation
										End Site
										{
											OFFSET 2.59202 -0.69453 0.00000
										}
									}
								}
							}
						}
					}
				}
			}
		}
	}
	JOINT RightUpLeg
	{
		OFFSET -3.40597 0.00000 -0.99500
		CHANNELS 3 Xrotation Yrotation Zrotation
		JOINT RightLeg
		{
			OFFSET 0.00001 0.00000 -17.05191
			CHANNELS 3 Xrotation Yrotation Zrotation
			JOINT RightFoot
			{
				OFFSET 0.00001 0.00000 -15.93260
				CHANNELS 3 Xrotation Yrotation Zrotation
				JOINT RightToeBase
				{
					OFFSET 0.00000 -4.98016 -1.81263
					CHANNELS 3 Xrotation Yrotation Zrotation
					End Site
					{
						OFFSET 0.00000 -2.75539 -0.00000
					}
				}
			}
		}
	}
	JOINT LeftUpLeg
	{
		OFFSET 3.40597 0.00000 -0.99500
		CHANNELS 3 Xrotation Yrotation Zrotation
		JOINT LeftLeg
		{
			OFFSET 0.00001 0.00000 -17.05191
			CHANNELS 3 Xrotation Yrotation Zrotation
			JOINT LeftFoot
			{
				OFFSET 0.00001 0.00000 -15.93260
				CHANNELS 3 Xrotation Yrotation Zrotation
				JOINT LeftToeBase
				{
					OFFSET 0.00000 -4.98016 -1.81263
					CHANNELS 3 Xrotation Yrotation Zrotation
					End Site
					{
						OFFSET 0.00000 -2.75539 -0.00000
					}
				}
			}
		}
	}
}
MOTION
Frames: 10
Frame Time: 0.008342
 8.2302 -30.5004 18.1751 -79.9338 5.5800 174.6923 18.7134 -0.4756 -1.1794 12.6901 -0.4500 -0.6845 -1.4432 3.7935 -2.8972 -0.9685 4.7605 -4.4498 -25.1773 -22.5000 -0.7239 -4.8535 27.8314 20.3636 -15.5837 6.5752 18.7946 -34.9423 -21.4614 11.9452 -0.0000 0.0001 94.7996 17.9360 55.1718 -3.2702 0.0000 -0.0000 0.0000 -0.0000 0.0000 0.0000 -8.3355 -11.6037 -6.9417 -45.3422 52.7317 20.0982 -0.0001 -0.0000 -120.6684 33.3400 -60.2805 -7.9600 0.0000 0.0000 -0.0000 0.0000 -0.0000 -0.0000 -75.6221 -1.3231 1.1124 104.3587 0.0000 0.0000 -26.6988 10.6585 -20.1315 -25.7498 0.0000 -0.0000 -90.9009 -12.0014 7.9256 118.9400 0.0000 0.0000 -21.7213 12.2954 18.7019 -5.9739 0.0000 -0.0000
 8.1976 -30.3260 18.1798 -79.9554 5.8023 174.9558 18.6759 -0.4417 -1.1379 12.6616 -0.3950 -0.6866 -1.2959 4.0107 -3.0798 -1.0158 4.7824 -4.4806 -24.7943 -22.8973 -1.0119 -5.7352 28.0274 20.7872 -15.3459 6.0151 18.4541 -34.7966 -21.7823 11.8784 -0.0000 0.0001 95.0268 18.4587 55.0939 -3.2439 0.0000 -0.0000 0.0000 0.0000 -0.0000 -0.0000 -9.0114 -12.4619 -6.9886 -47.1806 51.8155 20.5077 -0.0001 -0.0000 -121.1368 33.2645 -58.4518 -6.5002 0.0000 0.0000 -0.0000 0.0000 -0.0000 -0.0000 -75.2027 -0.8624 1.3037 104.0082 0.0000 0.0000 -26.6888 10.5063 -20.0990 -25.3237 0.0000 -0.0000 -90.1604 -11.7801 8.3755 118.3060 0.0000 0.0000 -21.6201 12.1771 18.5752 -7.0124 0.0000 -0.0000
 8.1600 -30.1531 18.1820 -79.9829 6.0504 175.1926 18.6452 -0.3769 -1.1419 12.6240 -0.3520 -0.6832 -1.1663 4.2060 -3.2136 -1.0582 4.7967 -4.5022 -24.4785 -23.1790 -1.2398 -6.4615 28.1269 21.1441 -15.1462 5.5132 18.1515 -34.6568 -22.1556 11.7647 -0.0000 0.0001 95.2847 18.9879 55.0369 -3.1752 0.0000 0.0000 0.0000 0.0000 -0.0000 0.0000 -9.6124 -13.2965 -6.9815 -48.9921 50.8184 20.8066 -0.0001 -0.0000 -121.3713 32.7501 -56.5896 -5.2422 -0.0000 -0.0000 -0.0000 0.0000 0.0000 0.0000 -74.8335 -0.4016 1.5054 103.6961 0.0000 0.0000 -26.6915 10.3346 -20.0349 -24.9719 0.0000 -0.0000 -89.4098 -11.5351 8.8176 117.6463 0.0000 0.0000 -21.5150 12.0377 18.4603 -7.7678 0.0000 -0.0000
 8.1258 -29.9842 18.1831 -80.0497 6.2005 175.3803 18.6001 -0.3603 -1.1259 12.5866 -0.3188 -0.6816 -1.0600 4.3363 -3.3099 -1.0972 4.7708 -4.4916 -24.2640 -23.2207 -1.3969 -6.9545 28.0403 21.3864 -14.9833 5.1711 17.8568 -34.5429 -22.6714 11.6108 -0.0000 0.0001 95.5737 19.5242 55.0069 -3.0528 0.0000 -0.0000 -0.0000 -0.0000 0.0000 -0.0000 -10.1243 -14.0486 -6.9013 -50.7626 49.7281 20.9719 -0.0001 -0.0000 -121.3654 31.9341 -54.7573 -4.1393 0.0000 -0.0000 -0.0000 -0.0000 0.0000 -0.0000 -74.5266 -0.0370 1.5940 103.3933 0.0000 0.0000 -26.6850 10.1712 -19.9758 -24.6965 0.0000 -0.0000 -88.7367 -11.3302 9.1112 116.9968 0.0000 0.0000 -21.3993 11.8805 18.3375 -8.2787 0.0000 -0.0000
 8.0910 -29.8189 18.1846 -80.1502 6.3118 175.5475 18.5550 -0.3332 -1.1379 12.5488 -0.3102 -0.6719 -0.9845 4.3844 -3.3919 -1.1315 4.7247 -4.4470 -24.1764 -23.0141 -1.5042 -7.1921 27.7440 21.5239 -14.8836 4.9707 17.5840 -34.4317 -23.3054 11.4234 -0.0000 0.0001 95.8953 20.0281 54.9887 -2.8699 -0.0000 -0.0000 -0.0000 0.0000 -0.0000 -0.0000 -10.5288 -14.7239 -6.7280 -52.5067 48.5568 21.0139 -0.0001 -0.0000 -121.1309 30.9568 -53.0008 -3.1540 0.0000 -0.0000 -0.0000 0.0000 0.0000 0.0000 -74.2924 0.2931 1.6219 103.1152 0.0000 0.0000 -26.6779 10.0133 -19.9047 -24.4972 0.0000 -0.0000 -88.1222 -11.1173 9.3410 116.3434 0.0000 0.0000 -21.2814 11.6836 18.2421 -8.6262 0.0000 -0.0000
 8.0578 -29.6579 18.1877 -80.2830 6.3571 175.7011 18.5123 -0.3216 -1.1618 12.5184 -0.3062 -0.6739 -0.9410 4.3299 -3.4758 -1.1653 4.6122 -4.3316 -24.2168 -22.4218 -1.5456 -7.1487 27.1438 21.5104 -14.8336 5.0295 17.3055 -34.3614 -24.1457 11.1844 -0.0000 0.0001 96.2535 20.5192 54.9706 -2.6357 0.0000 -0.0000 0.0000 -0.0000 0.0000 0.0000 -10.8422 -15.2276 -6.4753 -54.1603 47.2663 20.8649 -0.0001 -0.0000 -120.6743 29.9381 -51.3637 -2.2364 0.0000 0.0000 -0.0000 0.0000 -0.0000 0.0000 -74.1259 0.5794 1.5579 102.8599 0.0000 0.0000 -26.6699 9.8683 -19.8325 -24.3643 0.0000 -0.0000 -87.5813 -10.9023 9.4882 115.6995 0.0000 0.0000 -21.1653 11.4407 18.1789 -8.9106 0.0000 -0.0000
 8.0274 -29.5011 18.1936 -80.4595 6.3360 175.8486 18.4580 -0.3232 -1.1952 12.5011 -0.3087 -0.6737 -0.9246 4.1605 -3.5717 -1.1956 4.4624 -4.1715 -24.4273 -21.4644 -1.5418 -6.7668 26.2211 21.3380 -14.8386 5.3034 17.0196 -34.3171 -25.1626 10.9254 -0.0000 0.0001 96.6338 20.9760 54.9426 -2.3559 -0.0000 0.0000 -0.0000 -0.0000 0.0000 -0.0000 -11.0619 -15.5887 -6.1348 -55.7368 45.8807 20.5431 -0.0001 -0.0000 -120.0247 28.9828 -49.8661 -1.3593 0.0000 0.0000 0.0000 -0.0000 0.0000 0.0000 -74.0412 0.8245 1.3961 102.6296 0.0000 0.0000 -26.6608 9.7409 -19.7655 -24.2838 0.0000 -0.0000 -87.1312 -10.6872 9.5628 115.0707 0.0000 0.0000 -21.0548 11.1496 18.1554 -9.2324 0.0000 -0.0000
 8.0001 -29.3484 18.2025 -80.6679 6.2557 175.9979 18.3956 -0.3299 -1.2369 12.5054 -0.3244 -0.6752 -0.9322 3.8920 -3.6959 -1.2235 4.2431 -3.9423 -24.7871 -20.0706 -1.4679 -6.0827 24.9199 20.9874 -14.8893 5.8592 16.7172 -34.3240 -26.3920 10.6170 -0.0000 0.0001 97.0403 21.4165 54.8820 -2.0455 -0.0000 0.0000 0.0000 -0.0000 -0.0000 -0.0000 -11.2195 -15.7341 -5.7349 -57.1767 44.3758 19.9873 -0.0001 -0.0001 -119.2014 28.1539 -48.5223 -0.4884 0.0000 -0.0000 -0.0000 -0.0000 -0.0000 0.0000 -74.0289 1.0412 1.1389 102.4315 0.0000 0.0000 -26.6580 9.6290 -19.7066 -24.2382 0.0000 -0.0000 -86.7588 -10.4675 9.5839 114.4612 0.0000 0.0000 -20.9569 10.8131 18.1784 -9.6785 0.0000 -0.0000
 7.9775 -29.1989 18.2144 -80.8942 6.1109 176.1493 18.3280 -0.3518 -1.2741 12.5388 -0.3445 -0.6782 -0.9568 3.5325 -3.8578 -1.2491 3.9448 -3.6393 -25.2915 -18.2193 -1.2989 -5.1117 23.1991 20.4399 -14.9776 6.7083 16.3940 -34.3905 -27.8292 10.2477 -0.0000 0.0001 97.4690 21.8513 54.7788 -1.7208 -0.0000 0.0000 -0.0000 -0.0000 -0.0000 0.0000 -11.3429 -15.6376 -5.3073 -58.4582 42.7494 19.1818 -0.0001 -0.0001 -118.2316 27.4838 -47.3341 0.3950 0.0000 -0.0000 0.0000 0.0000 0.0000 0.0000 -74.0730 1.2274 0.7776 102.2698 0.0000 0.0000 -26.6679 9.5295 -19.6636 -24.2069 0.0000 -0.0000 -86.4495 -10.2523 9.5533 113.8773 0.0000 0.0000 -20.8766 10.4411 18.2453 -10.3092 0.0000 -0.0000
 7.9577 -29.0509 18.2284 -81.1088 5.9398 176.3103 18.2735 -0.3646 -1.3201 12.6019 -0.3660 -0.6841 -0.9897 3.0979 -4.0452 -1.2724 3.5840 -3.2848 -25.9153 -15.9630 -1.0190 -3.9310 21.0679 19.7186 -15.0993 7.8023 16.0644 -34.5058 -29.4158 9.8138 -0.0000 0.0001 97.9122 22.2841 54.6359 -1.4018 0.0000 -0.0000 0.0000 0.0000 -0.0000 -0.0000 -11.4480 -15.3220 -4.8783 -59.5956 41.0218 18.1536 -0.0001 -0.0001 -117.1476 26.9796 -46.2923 1.2924 -0.0000 0.0000 -0.0000 0.0000 -0.0000 0.0000 -74.1512 1.4157 0.3466 102.1592 0.0000 0.0000 -26.7051 9.4308 -19.6304 -24.1685 0.0000 -0.0000 -86.1554 -10.0252 9.5202 113.3115 0.0000 0.0000 -20.8212 10.0451 18.3629 -11.1544 0.0000 -0.0000
